%TF.GenerationSoftware,KiCad,Pcbnew,9.0.0*%
%TF.CreationDate,2025-04-26T10:59:41+02:00*%
%TF.ProjectId,Faderbay,46616465-7262-4617-992e-6b696361645f,rev?*%
%TF.SameCoordinates,Original*%
%TF.FileFunction,Legend,Bot*%
%TF.FilePolarity,Positive*%
%FSLAX46Y46*%
G04 Gerber Fmt 4.6, Leading zero omitted, Abs format (unit mm)*
G04 Created by KiCad (PCBNEW 9.0.0) date 2025-04-26 10:59:41*
%MOMM*%
%LPD*%
G01*
G04 APERTURE LIST*
%ADD10C,0.300000*%
%ADD11C,0.000000*%
%ADD12C,2.499360*%
G04 APERTURE END LIST*
D10*
G36*
X-136629559Y57913962D02*
G01*
X-136533057Y57867994D01*
X-136448146Y57800502D01*
X-136390175Y57722730D01*
X-136154970Y57318264D01*
X-136131892Y57262209D01*
X-136124928Y57214217D01*
X-136138552Y57154948D01*
X-136176647Y57120552D01*
X-136248392Y57107238D01*
X-137256444Y57107238D01*
X-137337731Y57121165D01*
X-137433764Y57168055D01*
X-137518716Y57236706D01*
X-137576646Y57315883D01*
X-137694249Y57519398D01*
X-137753099Y57594281D01*
X-137834750Y57658800D01*
X-137926744Y57702922D01*
X-138008223Y57716319D01*
X-138070623Y57704665D01*
X-138103841Y57674487D01*
X-138115751Y57622346D01*
X-138109149Y57577828D01*
X-138087175Y57525443D01*
X-137856182Y57119695D01*
X-137797134Y57043530D01*
X-137715498Y56977912D01*
X-137623595Y56933227D01*
X-137542025Y56919660D01*
X-136130790Y56919660D01*
X-136046182Y56905756D01*
X-135951454Y56860126D01*
X-135867337Y56793179D01*
X-135806557Y56715412D01*
X-135340175Y55910509D01*
X-135317095Y55854635D01*
X-135310134Y55806828D01*
X-135323727Y55747917D01*
X-135361794Y55713672D01*
X-135433598Y55700400D01*
X-138256069Y55700400D01*
X-138337269Y55714047D01*
X-138433206Y55759934D01*
X-138518238Y55827268D01*
X-138576088Y55904831D01*
X-138986674Y56613562D01*
X-137536163Y56613562D01*
X-137529569Y56568810D01*
X-137507586Y56515926D01*
X-137272381Y56110544D01*
X-137216288Y56035109D01*
X-137133712Y55969494D01*
X-137040089Y55924895D01*
X-136958223Y55911425D01*
X-136895959Y55923174D01*
X-136862675Y55953704D01*
X-136850695Y56006680D01*
X-136857335Y56051794D01*
X-136879455Y56105049D01*
X-137114661Y56509698D01*
X-137170367Y56585102D01*
X-137251131Y56650382D01*
X-137343001Y56694931D01*
X-137424422Y56708451D01*
X-137489563Y56696545D01*
X-137523940Y56665949D01*
X-137536163Y56613562D01*
X-138986674Y56613562D01*
X-139626271Y57717601D01*
X-139649351Y57773475D01*
X-139656313Y57821282D01*
X-139642974Y57880669D01*
X-139606013Y57914794D01*
X-139537061Y57927894D01*
X-136714591Y57927894D01*
X-136629559Y57913962D01*
G37*
G36*
X-142512306Y57107238D02*
G01*
X-142593656Y57120933D01*
X-142689626Y57166956D01*
X-142774545Y57234594D01*
X-142832508Y57312402D01*
X-143067714Y57716868D01*
X-143090791Y57772923D01*
X-143097756Y57820916D01*
X-143084397Y57880542D01*
X-143047417Y57914767D01*
X-142978504Y57927894D01*
X-140156034Y57927894D01*
X-140071115Y57914055D01*
X-139974500Y57868360D01*
X-139889620Y57801039D01*
X-139831801Y57723463D01*
X-138781618Y55910693D01*
X-138758538Y55854818D01*
X-138751576Y55807012D01*
X-138765180Y55747981D01*
X-138803256Y55713686D01*
X-138875041Y55700400D01*
X-141697511Y55700400D01*
X-141778872Y55714056D01*
X-141874832Y55759934D01*
X-141959766Y55827214D01*
X-142017714Y55904648D01*
X-142483729Y56709550D01*
X-142510250Y56765528D01*
X-142518167Y56813231D01*
X-142504574Y56872143D01*
X-142466507Y56906387D01*
X-142394703Y56919660D01*
X-141386651Y56919660D01*
X-141301862Y56905826D01*
X-141207133Y56860492D01*
X-141123109Y56794105D01*
X-141062236Y56716877D01*
X-140713640Y56112376D01*
X-140657577Y56037243D01*
X-140574971Y55971692D01*
X-140481382Y55927229D01*
X-140399666Y55913807D01*
X-140337383Y55925542D01*
X-140304108Y55956021D01*
X-140292138Y56008878D01*
X-140298748Y56053953D01*
X-140320715Y56106881D01*
X-141135509Y57519032D01*
X-141194517Y57594298D01*
X-141276193Y57659166D01*
X-141368063Y57703418D01*
X-141449666Y57716868D01*
X-141511873Y57705080D01*
X-141545184Y57674399D01*
X-141557194Y57621064D01*
X-141550547Y57575789D01*
X-141528434Y57522512D01*
X-141410831Y57319180D01*
X-141387756Y57262944D01*
X-141380790Y57214766D01*
X-141394444Y57155140D01*
X-141432567Y57120593D01*
X-141504254Y57107238D01*
X-142512306Y57107238D01*
G37*
G36*
X-145891650Y57107238D02*
G01*
X-145973000Y57120933D01*
X-146068970Y57166956D01*
X-146153889Y57234594D01*
X-146211852Y57312402D01*
X-146447058Y57716868D01*
X-146470135Y57772923D01*
X-146477100Y57820916D01*
X-146463742Y57880542D01*
X-146426761Y57914767D01*
X-146357848Y57927894D01*
X-143535378Y57927894D01*
X-143450459Y57914055D01*
X-143353844Y57868360D01*
X-143268964Y57801039D01*
X-143211145Y57723463D01*
X-142160962Y55910693D01*
X-142137882Y55854818D01*
X-142130920Y55807012D01*
X-142144524Y55747981D01*
X-142182600Y55713686D01*
X-142254385Y55700400D01*
X-145076855Y55700400D01*
X-145158216Y55714056D01*
X-145254176Y55759934D01*
X-145339110Y55827214D01*
X-145397058Y55904648D01*
X-145863073Y56709550D01*
X-145889594Y56765528D01*
X-145897511Y56813231D01*
X-145883918Y56872143D01*
X-145845851Y56906387D01*
X-145774047Y56919660D01*
X-144765995Y56919660D01*
X-144681206Y56905826D01*
X-144586477Y56860492D01*
X-144502453Y56794105D01*
X-144441580Y56716877D01*
X-144092984Y56112376D01*
X-144036922Y56037243D01*
X-143954315Y55971692D01*
X-143860726Y55927229D01*
X-143779010Y55913807D01*
X-143716727Y55925542D01*
X-143683452Y55956021D01*
X-143671482Y56008878D01*
X-143678092Y56053953D01*
X-143700059Y56106881D01*
X-144514853Y57519032D01*
X-144573861Y57594298D01*
X-144655537Y57659166D01*
X-144747407Y57703418D01*
X-144829010Y57716868D01*
X-144891217Y57705080D01*
X-144924528Y57674399D01*
X-144936538Y57621064D01*
X-144929891Y57575789D01*
X-144907778Y57522512D01*
X-144790175Y57319180D01*
X-144767100Y57262944D01*
X-144760134Y57214766D01*
X-144773788Y57155140D01*
X-144811911Y57120593D01*
X-144883598Y57107238D01*
X-145891650Y57107238D01*
G37*
G36*
X-146850734Y57914041D02*
G01*
X-146754254Y57868360D01*
X-146669335Y57801048D01*
X-146611372Y57723463D01*
X-145561372Y55910693D01*
X-145538292Y55854818D01*
X-145531330Y55807012D01*
X-145544934Y55747981D01*
X-145583010Y55713686D01*
X-145654795Y55700400D01*
X-148477082Y55700400D01*
X-148558433Y55714095D01*
X-148654403Y55760117D01*
X-148739322Y55827755D01*
X-148797285Y55905563D01*
X-149032490Y56310030D01*
X-149055568Y56366085D01*
X-149062532Y56414077D01*
X-149049174Y56473703D01*
X-149012194Y56507929D01*
X-148943281Y56521055D01*
X-147935230Y56521055D01*
X-147850364Y56507020D01*
X-147753696Y56460605D01*
X-147668860Y56392536D01*
X-147610997Y56314060D01*
X-147493394Y56112376D01*
X-147437332Y56037243D01*
X-147354725Y55971692D01*
X-147261113Y55927237D01*
X-147179237Y55913807D01*
X-147116681Y55925353D01*
X-147083538Y55955126D01*
X-147071709Y56006314D01*
X-147078347Y56050241D01*
X-147100469Y56101935D01*
X-147335674Y56508416D01*
X-147391401Y56584382D01*
X-147472145Y56650199D01*
X-147564036Y56695036D01*
X-147645435Y56708634D01*
X-149056671Y56708634D01*
X-149141724Y56722487D01*
X-149238204Y56768168D01*
X-149323138Y56835448D01*
X-149381086Y56912882D01*
X-149791689Y57621797D01*
X-148336948Y57621797D01*
X-148330306Y57576892D01*
X-148308188Y57523978D01*
X-148077196Y57120427D01*
X-148018175Y57044787D01*
X-147936512Y56979560D01*
X-147844630Y56935164D01*
X-147763038Y56921675D01*
X-147697996Y56933649D01*
X-147663571Y56964498D01*
X-147651297Y57017479D01*
X-147658824Y57062415D01*
X-147684270Y57116214D01*
X-147915263Y57516650D01*
X-147974310Y57592815D01*
X-148055947Y57658433D01*
X-148147861Y57703262D01*
X-148229420Y57716868D01*
X-148291703Y57705133D01*
X-148324978Y57674654D01*
X-148336948Y57621797D01*
X-149791689Y57621797D01*
X-149847285Y57717784D01*
X-149870365Y57773659D01*
X-149877327Y57821465D01*
X-149863998Y57880732D01*
X-149827045Y57914807D01*
X-149758075Y57927894D01*
X-146935788Y57927894D01*
X-146850734Y57914041D01*
G37*
G36*
X-152754385Y57107238D02*
G01*
X-152835736Y57120933D01*
X-152931705Y57166956D01*
X-153016625Y57234594D01*
X-153074587Y57312402D01*
X-153309793Y57716868D01*
X-153332871Y57772923D01*
X-153339835Y57820916D01*
X-153326477Y57880542D01*
X-153289497Y57914767D01*
X-153220584Y57927894D01*
X-150398113Y57927894D01*
X-150313194Y57914055D01*
X-150216580Y57868360D01*
X-150131685Y57801071D01*
X-150073881Y57723646D01*
X-149607499Y56918744D01*
X-149584419Y56862870D01*
X-149577457Y56815063D01*
X-149590786Y56755796D01*
X-149627739Y56721721D01*
X-149696709Y56708634D01*
X-151107944Y56708634D01*
X-151173026Y56696687D01*
X-151207431Y56665939D01*
X-151219685Y56613196D01*
X-151213041Y56568106D01*
X-151190926Y56515010D01*
X-150955720Y56110544D01*
X-150899627Y56035109D01*
X-150817051Y55969494D01*
X-150723451Y55924886D01*
X-150641746Y55911425D01*
X-150579577Y55923241D01*
X-150546247Y55954022D01*
X-150534218Y56007596D01*
X-150540828Y56053067D01*
X-150562794Y56106514D01*
X-150680397Y56308198D01*
X-150703618Y56364783D01*
X-150710622Y56413161D01*
X-150697215Y56473385D01*
X-150660189Y56507862D01*
X-150591370Y56521055D01*
X-149583319Y56521055D01*
X-149498422Y56507137D01*
X-149401786Y56461155D01*
X-149316913Y56393655D01*
X-149259087Y56315891D01*
X-149023881Y55911425D01*
X-149000660Y55855361D01*
X-148993656Y55807378D01*
X-149007280Y55748109D01*
X-149045375Y55713713D01*
X-149117121Y55700400D01*
X-151939591Y55700400D01*
X-152020952Y55714056D01*
X-152116911Y55759934D01*
X-152201845Y55827214D01*
X-152259793Y55904648D01*
X-152725809Y56709550D01*
X-152752329Y56765528D01*
X-152760247Y56813231D01*
X-152746653Y56872143D01*
X-152708587Y56906387D01*
X-152636782Y56919660D01*
X-151225547Y56919660D01*
X-151160642Y56931729D01*
X-151126151Y56962932D01*
X-151113806Y57016746D01*
X-151121314Y57062411D01*
X-151146596Y57116764D01*
X-151377588Y57519581D01*
X-151436431Y57594501D01*
X-151518089Y57659166D01*
X-151610117Y57703424D01*
X-151691746Y57716868D01*
X-151754029Y57705133D01*
X-151787304Y57674654D01*
X-151799273Y57621797D01*
X-151792624Y57576731D01*
X-151770514Y57523794D01*
X-151652911Y57321928D01*
X-151629846Y57264969D01*
X-151622869Y57216048D01*
X-151636594Y57155587D01*
X-151674782Y57120687D01*
X-151746334Y57107238D01*
X-152754385Y57107238D01*
G37*
G36*
X-156198209Y57107238D02*
G01*
X-156279560Y57120933D01*
X-156375530Y57166956D01*
X-156460449Y57234594D01*
X-156518412Y57312402D01*
X-156753618Y57716868D01*
X-156776695Y57772923D01*
X-156783659Y57820916D01*
X-156770301Y57880542D01*
X-156733321Y57914767D01*
X-156664408Y57927894D01*
X-153841937Y57927894D01*
X-153757019Y57914055D01*
X-153660404Y57868360D01*
X-153575509Y57801071D01*
X-153517705Y57723646D01*
X-153051323Y56918744D01*
X-153028243Y56862870D01*
X-153021281Y56815063D01*
X-153034610Y56755796D01*
X-153071563Y56721721D01*
X-153140533Y56708634D01*
X-154551768Y56708634D01*
X-154616850Y56696687D01*
X-154651256Y56665939D01*
X-154663509Y56613196D01*
X-154656865Y56568106D01*
X-154634750Y56515010D01*
X-154399544Y56110544D01*
X-154343451Y56035109D01*
X-154260875Y55969494D01*
X-154167275Y55924886D01*
X-154085570Y55911425D01*
X-154023401Y55923241D01*
X-153990071Y55954022D01*
X-153978042Y56007596D01*
X-153984652Y56053067D01*
X-154006618Y56106514D01*
X-154124221Y56308198D01*
X-154147442Y56364783D01*
X-154154446Y56413161D01*
X-154141039Y56473385D01*
X-154104013Y56507862D01*
X-154035195Y56521055D01*
X-153027143Y56521055D01*
X-152942246Y56507137D01*
X-152845610Y56461155D01*
X-152760737Y56393655D01*
X-152702911Y56315891D01*
X-152467705Y55911425D01*
X-152444484Y55855361D01*
X-152437480Y55807378D01*
X-152451104Y55748109D01*
X-152489199Y55713713D01*
X-152560945Y55700400D01*
X-155383415Y55700400D01*
X-155464776Y55714056D01*
X-155560735Y55759934D01*
X-155645669Y55827214D01*
X-155703618Y55904648D01*
X-156169633Y56709550D01*
X-156196153Y56765528D01*
X-156204071Y56813231D01*
X-156190477Y56872143D01*
X-156152411Y56906387D01*
X-156080606Y56919660D01*
X-154669371Y56919660D01*
X-154604467Y56931729D01*
X-154569975Y56962932D01*
X-154557630Y57016746D01*
X-154565138Y57062411D01*
X-154590420Y57116764D01*
X-154821412Y57519581D01*
X-154880255Y57594501D01*
X-154961913Y57659166D01*
X-155053941Y57703424D01*
X-155135570Y57716868D01*
X-155197853Y57705133D01*
X-155231128Y57674654D01*
X-155243098Y57621797D01*
X-155236448Y57576731D01*
X-155214338Y57523794D01*
X-155096735Y57321928D01*
X-155073670Y57264969D01*
X-155066693Y57216048D01*
X-155080418Y57155587D01*
X-155118607Y57120687D01*
X-155190158Y57107238D01*
X-156198209Y57107238D01*
G37*
G36*
X-144673881Y49240005D02*
G01*
X-144702014Y49205595D01*
X-144737812Y49194942D01*
X-144782181Y49205212D01*
X-144827920Y49239226D01*
X-144877396Y49306867D01*
X-146242286Y51669733D01*
X-146268801Y51725554D01*
X-146276725Y51773231D01*
X-146263131Y51832143D01*
X-146225064Y51866387D01*
X-146153260Y51879660D01*
X-145145209Y51879660D01*
X-145060590Y51865795D01*
X-144965873Y51820309D01*
X-144881842Y51753775D01*
X-144820976Y51676511D01*
X-144472381Y51071094D01*
X-144416348Y50996486D01*
X-144333712Y50931326D01*
X-144240121Y50887159D01*
X-144158223Y50873807D01*
X-144095921Y50885528D01*
X-144062655Y50915958D01*
X-144050695Y50968695D01*
X-144057337Y51013600D01*
X-144079455Y51066514D01*
X-144894249Y52477749D01*
X-144953284Y52553540D01*
X-145034933Y52618800D01*
X-145126802Y52663348D01*
X-145208223Y52676868D01*
X-145270468Y52665107D01*
X-145303761Y52634526D01*
X-145315751Y52581431D01*
X-145309146Y52536331D01*
X-145287175Y52483245D01*
X-145169572Y52279730D01*
X-145146343Y52223167D01*
X-145139347Y52174949D01*
X-145153011Y52115204D01*
X-145191144Y52080606D01*
X-145262812Y52067238D01*
X-146270863Y52067238D01*
X-146352213Y52080933D01*
X-146448183Y52126956D01*
X-146533103Y52194594D01*
X-146591065Y52272402D01*
X-146826271Y52676868D01*
X-146849349Y52732923D01*
X-146856313Y52780916D01*
X-146842955Y52840542D01*
X-146805975Y52874767D01*
X-146737061Y52887894D01*
X-143914591Y52887894D01*
X-143829672Y52874055D01*
X-143733057Y52828360D01*
X-143648177Y52761039D01*
X-143590359Y52683463D01*
X-142540175Y50870693D01*
X-142517095Y50814818D01*
X-142510134Y50767012D01*
X-142523738Y50707981D01*
X-142561813Y50673686D01*
X-142633598Y50660400D01*
X-144044833Y50660400D01*
X-144113328Y50648656D01*
X-144148566Y50619126D01*
X-144160788Y50569908D01*
X-144140455Y50493154D01*
X-144102353Y50403791D01*
X-144089347Y50301912D01*
X-144096345Y50233364D01*
X-144115359Y50181745D01*
X-144673881Y49240005D01*
G37*
G36*
X-147419048Y52887894D02*
G01*
X-147334130Y52874055D01*
X-147237515Y52828360D01*
X-147152635Y52761039D01*
X-147094816Y52683463D01*
X-146044633Y50870693D01*
X-146021553Y50814818D01*
X-146014591Y50767012D01*
X-146028195Y50707981D01*
X-146066271Y50673686D01*
X-146138056Y50660400D01*
X-147145924Y50660400D01*
X-147227316Y50673940D01*
X-147323244Y50719384D01*
X-147408336Y50786263D01*
X-147466126Y50862999D01*
X-148398523Y52479581D01*
X-148457359Y52554314D01*
X-148539024Y52618800D01*
X-148631041Y52662913D01*
X-148712681Y52676319D01*
X-148774983Y52664597D01*
X-148808249Y52634168D01*
X-148820209Y52581431D01*
X-148813572Y52536502D01*
X-148791449Y52483428D01*
X-148673846Y52281928D01*
X-148650766Y52226054D01*
X-148643804Y52178247D01*
X-148657408Y52119216D01*
X-148695484Y52084921D01*
X-148767269Y52071635D01*
X-149775320Y52071635D01*
X-149856681Y52085291D01*
X-149952641Y52131169D01*
X-150037589Y52198417D01*
X-150095523Y52275700D01*
X-150330728Y52677968D01*
X-150353804Y52733683D01*
X-150360770Y52781465D01*
X-150347442Y52840732D01*
X-150310489Y52874807D01*
X-150241519Y52887894D01*
X-147419048Y52887894D01*
G37*
G36*
X-150754393Y52873962D02*
G01*
X-150657892Y52827994D01*
X-150572980Y52760502D01*
X-150515010Y52682730D01*
X-150279804Y52278264D01*
X-150256726Y52222209D01*
X-150249762Y52174217D01*
X-150263386Y52114948D01*
X-150301481Y52080552D01*
X-150373227Y52067238D01*
X-151381095Y52067238D01*
X-151462382Y52081165D01*
X-151558415Y52128055D01*
X-151643367Y52196706D01*
X-151701297Y52275883D01*
X-151818900Y52479398D01*
X-151877750Y52554281D01*
X-151959401Y52618800D01*
X-152051418Y52662913D01*
X-152133057Y52676319D01*
X-152195457Y52664665D01*
X-152228676Y52634487D01*
X-152240585Y52582346D01*
X-152233944Y52537838D01*
X-152211826Y52485443D01*
X-151980833Y52079695D01*
X-151921785Y52003530D01*
X-151840149Y51937912D01*
X-151748269Y51893219D01*
X-151666859Y51879660D01*
X-150255624Y51879660D01*
X-150171016Y51865756D01*
X-150076288Y51820126D01*
X-149992171Y51753179D01*
X-149931391Y51675412D01*
X-149465010Y50870509D01*
X-149441929Y50814635D01*
X-149434968Y50766828D01*
X-149448562Y50707917D01*
X-149486628Y50673672D01*
X-149558433Y50660400D01*
X-152380903Y50660400D01*
X-152462103Y50674047D01*
X-152558040Y50719934D01*
X-152643072Y50787268D01*
X-152700922Y50864831D01*
X-153111508Y51573562D01*
X-151660997Y51573562D01*
X-151654363Y51528819D01*
X-151632238Y51475926D01*
X-151397032Y51070544D01*
X-151340939Y50995109D01*
X-151258363Y50929494D01*
X-151164763Y50884886D01*
X-151083057Y50871425D01*
X-151020793Y50883174D01*
X-150987509Y50913704D01*
X-150975530Y50966680D01*
X-150982129Y51011804D01*
X-151004106Y51065049D01*
X-151239312Y51469698D01*
X-151295018Y51545102D01*
X-151375783Y51610382D01*
X-151467675Y51654922D01*
X-151549256Y51668451D01*
X-151614397Y51656545D01*
X-151648774Y51625949D01*
X-151660997Y51573562D01*
X-153111508Y51573562D01*
X-153751105Y52677601D01*
X-153774185Y52733475D01*
X-153781147Y52781282D01*
X-153767809Y52840669D01*
X-153730847Y52874794D01*
X-153661896Y52887894D01*
X-150839425Y52887894D01*
X-150754393Y52873962D01*
G37*
G36*
X-154240751Y52887894D02*
G01*
X-154155832Y52874055D01*
X-154059218Y52828360D01*
X-153974338Y52761039D01*
X-153916519Y52683463D01*
X-152866336Y50870693D01*
X-152843255Y50814818D01*
X-152836294Y50767012D01*
X-152849898Y50707981D01*
X-152887974Y50673686D01*
X-152959758Y50660400D01*
X-153967627Y50660400D01*
X-154048977Y50674095D01*
X-154144947Y50720117D01*
X-154229971Y50787630D01*
X-154287829Y50865380D01*
X-155220226Y52479215D01*
X-155279068Y52554135D01*
X-155360727Y52618800D01*
X-155452744Y52662913D01*
X-155534383Y52676319D01*
X-155596686Y52664597D01*
X-155629951Y52634168D01*
X-155641911Y52581431D01*
X-155635270Y52536526D01*
X-155613152Y52483611D01*
X-154680755Y50870876D01*
X-154657674Y50815002D01*
X-154650713Y50767195D01*
X-154664327Y50708045D01*
X-154702412Y50673700D01*
X-154774178Y50660400D01*
X-155782229Y50660400D01*
X-155863429Y50674047D01*
X-155959366Y50719934D01*
X-156044398Y50787268D01*
X-156102248Y50864831D01*
X-157152248Y52677601D01*
X-157175472Y52733485D01*
X-157182473Y52781282D01*
X-157169135Y52840669D01*
X-157132173Y52874794D01*
X-157063221Y52887894D01*
X-154240751Y52887894D01*
G37*
G36*
X-158896875Y52881300D02*
G01*
X-158955857Y52956766D01*
X-159037375Y53021800D01*
X-159129257Y53066197D01*
X-159210849Y53079686D01*
X-159284677Y53086609D01*
X-159372415Y53109361D01*
X-159441551Y53142783D01*
X-159475373Y53177781D01*
X-159485622Y53215607D01*
X-159472252Y53254123D01*
X-159427565Y53281017D01*
X-159328452Y53292910D01*
X-159263271Y53304788D01*
X-159228913Y53335283D01*
X-159216711Y53387432D01*
X-159223355Y53432126D01*
X-159245470Y53484702D01*
X-159480676Y53886054D01*
X-159503754Y53941588D01*
X-159510718Y53989185D01*
X-159497399Y54048332D01*
X-159460456Y54082357D01*
X-159391466Y54095431D01*
X-158383415Y54095431D01*
X-158298496Y54081591D01*
X-158201882Y54035897D01*
X-158116987Y53968608D01*
X-158059183Y53891183D01*
X-156110491Y50520265D01*
X-156062666Y50409845D01*
X-156046744Y50290921D01*
X-156053706Y50230086D01*
X-156072939Y50183210D01*
X-156627065Y49239822D01*
X-156658690Y49205436D01*
X-156695209Y49194942D01*
X-156739568Y49205215D01*
X-156785249Y49239230D01*
X-156834610Y49306867D01*
X-158896875Y52881300D01*
G37*
G36*
X-159352758Y52874041D02*
G01*
X-159256278Y52828360D01*
X-159171359Y52761048D01*
X-159113396Y52683463D01*
X-158063396Y50870693D01*
X-158040316Y50814818D01*
X-158033354Y50767012D01*
X-158046958Y50707981D01*
X-158085034Y50673686D01*
X-158156819Y50660400D01*
X-160979106Y50660400D01*
X-161060456Y50674095D01*
X-161156426Y50720117D01*
X-161241346Y50787755D01*
X-161299308Y50865563D01*
X-161534514Y51270030D01*
X-161557592Y51326085D01*
X-161564556Y51374077D01*
X-161551198Y51433703D01*
X-161514218Y51467929D01*
X-161445305Y51481055D01*
X-160437253Y51481055D01*
X-160352388Y51467020D01*
X-160255720Y51420605D01*
X-160170883Y51352536D01*
X-160113021Y51274060D01*
X-159995418Y51072376D01*
X-159939355Y50997243D01*
X-159856749Y50931692D01*
X-159763137Y50887237D01*
X-159681261Y50873807D01*
X-159618705Y50885353D01*
X-159585562Y50915126D01*
X-159573733Y50966314D01*
X-159580371Y51010241D01*
X-159602492Y51061935D01*
X-159837698Y51468416D01*
X-159893424Y51544382D01*
X-159974169Y51610199D01*
X-160066060Y51655036D01*
X-160147459Y51668634D01*
X-161558694Y51668634D01*
X-161643748Y51682487D01*
X-161740228Y51728168D01*
X-161825162Y51795448D01*
X-161883110Y51872882D01*
X-162293712Y52581797D01*
X-160838972Y52581797D01*
X-160832330Y52536892D01*
X-160810212Y52483978D01*
X-160579219Y52080427D01*
X-160520199Y52004787D01*
X-160438536Y51939560D01*
X-160346654Y51895164D01*
X-160265062Y51881675D01*
X-160200020Y51893649D01*
X-160165595Y51924498D01*
X-160153321Y51977479D01*
X-160160848Y52022415D01*
X-160186294Y52076214D01*
X-160417286Y52476650D01*
X-160476334Y52552815D01*
X-160557970Y52618433D01*
X-160649884Y52663262D01*
X-160731444Y52676868D01*
X-160793727Y52665133D01*
X-160827002Y52634654D01*
X-160838972Y52581797D01*
X-162293712Y52581797D01*
X-162349308Y52677784D01*
X-162372389Y52733659D01*
X-162379350Y52781465D01*
X-162366022Y52840732D01*
X-162329069Y52874807D01*
X-162260099Y52887894D01*
X-159437812Y52887894D01*
X-159352758Y52874041D01*
G37*
G36*
X-165230585Y54354995D02*
G01*
X-165186296Y54321041D01*
X-165136974Y54252418D01*
X-164464879Y53087563D01*
X-164408816Y53012653D01*
X-164326210Y52947428D01*
X-164233127Y52902918D01*
X-164154935Y52889726D01*
X-162743883Y52889726D01*
X-162658814Y52875839D01*
X-162562166Y52830009D01*
X-162477286Y52762688D01*
X-162419467Y52685112D01*
X-161369467Y50870876D01*
X-161346382Y50814843D01*
X-161339425Y50767012D01*
X-161353029Y50707981D01*
X-161391105Y50673686D01*
X-161462890Y50660400D01*
X-164285177Y50660400D01*
X-164366528Y50674095D01*
X-164462497Y50720117D01*
X-164547537Y50787598D01*
X-164605380Y50865197D01*
X-165596697Y52581247D01*
X-164145043Y52581247D01*
X-164138399Y52536157D01*
X-164116283Y52483062D01*
X-163301489Y51072376D01*
X-163245426Y50997243D01*
X-163162820Y50931692D01*
X-163069208Y50887237D01*
X-162987332Y50873807D01*
X-162925068Y50885555D01*
X-162891784Y50916085D01*
X-162879804Y50969061D01*
X-162886448Y51014151D01*
X-162908563Y51067247D01*
X-163723358Y52478665D01*
X-163782351Y52553781D01*
X-163864041Y52618617D01*
X-163955889Y52662877D01*
X-164037332Y52676319D01*
X-164099738Y52664576D01*
X-164133061Y52634089D01*
X-164145043Y52581247D01*
X-165596697Y52581247D01*
X-165873733Y53060818D01*
X-165911964Y53154408D01*
X-165924840Y53257189D01*
X-165917698Y53325640D01*
X-165898829Y53373693D01*
X-165340306Y54324409D01*
X-165308931Y54355398D01*
X-165272346Y54365075D01*
X-165230585Y54354995D01*
G37*
G36*
X-165891135Y50660400D02*
G01*
X-165972496Y50674056D01*
X-166068455Y50719934D01*
X-166153502Y50787235D01*
X-166211337Y50864648D01*
X-166677353Y51669550D01*
X-166703873Y51725528D01*
X-166711791Y51773231D01*
X-166698197Y51832143D01*
X-166660131Y51866387D01*
X-166588326Y51879660D01*
X-165580458Y51879660D01*
X-165495690Y51865748D01*
X-165400940Y51820126D01*
X-165316822Y51753179D01*
X-165256042Y51675412D01*
X-164789844Y50870509D01*
X-164766764Y50814635D01*
X-164759802Y50766828D01*
X-164773396Y50707917D01*
X-164811462Y50673672D01*
X-164883267Y50660400D01*
X-165891135Y50660400D01*
G37*
D11*
%TO.C,G\u002A\u002A\u002A*%
G36*
X-135116832Y51847189D02*
G01*
X-133154324Y51824467D01*
X-132779727Y51189467D01*
X-132349591Y50456501D01*
X-132002525Y49855951D01*
X-131732406Y49376292D01*
X-131533114Y49006003D01*
X-131398526Y48733558D01*
X-131322521Y48547433D01*
X-131298976Y48436106D01*
X-131302994Y48409606D01*
X-131372422Y48260941D01*
X-131509637Y48002227D01*
X-131698800Y47660634D01*
X-131924073Y47263327D01*
X-132169620Y46837475D01*
X-132419601Y46410246D01*
X-132658180Y46008806D01*
X-132869519Y45660324D01*
X-133037779Y45391967D01*
X-133147123Y45230902D01*
X-133174493Y45199301D01*
X-133274533Y45161481D01*
X-133478313Y45132822D01*
X-133800544Y45112549D01*
X-134255937Y45099888D01*
X-134859201Y45094064D01*
X-135184615Y45093467D01*
X-135845525Y45096122D01*
X-136352666Y45104644D01*
X-136721532Y45119867D01*
X-136967612Y45142629D01*
X-137106400Y45173763D01*
X-137146745Y45199301D01*
X-137219373Y45310952D01*
X-137359005Y45541851D01*
X-137549375Y45863800D01*
X-137774217Y46248599D01*
X-138017267Y46668052D01*
X-138262259Y47093961D01*
X-138492927Y47498127D01*
X-138693006Y47852352D01*
X-138846232Y48128440D01*
X-138936337Y48298190D01*
X-138946492Y48319378D01*
X-138972514Y48406266D01*
X-138968914Y48474573D01*
X-138607800Y48474573D01*
X-138566671Y48353876D01*
X-138455661Y48125277D01*
X-138293336Y47825272D01*
X-138158083Y47590572D01*
X-137908048Y47165809D01*
X-137632364Y46695261D01*
X-137378666Y46260292D01*
X-137303370Y46130634D01*
X-136898374Y45432134D01*
X-135134792Y45432134D01*
X-133371211Y45432134D01*
X-132699301Y46596301D01*
X-132369235Y47166947D01*
X-132113902Y47608820D01*
X-131925148Y47940809D01*
X-131794820Y48181802D01*
X-131714765Y48350687D01*
X-131676829Y48466353D01*
X-131672859Y48547688D01*
X-131694703Y48613581D01*
X-131734207Y48682919D01*
X-131770393Y48748299D01*
X-131885846Y48965145D01*
X-132051491Y49263797D01*
X-132231723Y49580071D01*
X-132233914Y49583859D01*
X-132446993Y49954599D01*
X-132687456Y50376700D01*
X-132885270Y50726859D01*
X-133048388Y51021987D01*
X-133178669Y51243467D01*
X-133302684Y51401777D01*
X-133447003Y51507396D01*
X-133638196Y51570802D01*
X-133902835Y51602475D01*
X-134267490Y51612893D01*
X-134758732Y51612535D01*
X-135128422Y51611504D01*
X-135644748Y51608055D01*
X-136104641Y51599208D01*
X-136480652Y51585962D01*
X-136745332Y51569315D01*
X-136871233Y51550263D01*
X-136875515Y51548004D01*
X-136950193Y51451922D01*
X-137088399Y51235495D01*
X-137274421Y50926602D01*
X-137492546Y50553118D01*
X-137727061Y50142921D01*
X-137962255Y49723889D01*
X-138182414Y49323898D01*
X-138371826Y48970825D01*
X-138514779Y48692548D01*
X-138595561Y48516945D01*
X-138607800Y48474573D01*
X-138968914Y48474573D01*
X-138966899Y48512802D01*
X-138919747Y48661564D01*
X-138821159Y48875129D01*
X-138661235Y49176075D01*
X-138430076Y49586979D01*
X-138262610Y49879114D01*
X-137999292Y50335019D01*
X-137750608Y50762313D01*
X-137534584Y51130269D01*
X-137369247Y51408159D01*
X-137281865Y51550856D01*
X-137079340Y51869911D01*
X-135116832Y51847189D01*
G37*
G36*
X-127485996Y56097737D02*
G01*
X-127002554Y56091042D01*
X-126599126Y56080796D01*
X-126303152Y56067746D01*
X-126142072Y56052639D01*
X-126125885Y56048548D01*
X-126024370Y55954776D01*
X-125855632Y55723823D01*
X-125617439Y55352202D01*
X-125307560Y54836430D01*
X-124923765Y54173023D01*
X-124912225Y54152801D01*
X-124781983Y53924536D01*
X-124607023Y53617955D01*
X-124436489Y53319167D01*
X-124285962Y53041836D01*
X-124176564Y52814318D01*
X-124130143Y52682372D01*
X-124129800Y52676794D01*
X-124170053Y52580024D01*
X-124280932Y52363308D01*
X-124447615Y52052893D01*
X-124655284Y51675028D01*
X-124889118Y51255961D01*
X-125134296Y50821938D01*
X-125375999Y50399209D01*
X-125599405Y50014022D01*
X-125789695Y49692623D01*
X-125932049Y49461262D01*
X-126007870Y49350574D01*
X-126082341Y49312346D01*
X-126245012Y49284149D01*
X-126513191Y49265075D01*
X-126904187Y49254213D01*
X-127435308Y49250657D01*
X-127886667Y49251956D01*
X-128427915Y49256669D01*
X-128917691Y49264226D01*
X-129328529Y49273936D01*
X-129632962Y49285109D01*
X-129803524Y49297057D01*
X-129824075Y49300582D01*
X-129913134Y49364769D01*
X-130047609Y49528799D01*
X-130234838Y49803767D01*
X-130482162Y50200772D01*
X-130796920Y50730910D01*
X-130989444Y51062467D01*
X-131292930Y51590994D01*
X-131518835Y51991849D01*
X-131676499Y52282684D01*
X-131775263Y52481149D01*
X-131824468Y52604894D01*
X-131834467Y52659289D01*
X-131818814Y52703301D01*
X-131522315Y52703301D01*
X-131383993Y52433217D01*
X-131255479Y52194270D01*
X-131091263Y51903901D01*
X-131020095Y51782134D01*
X-130855775Y51503044D01*
X-130701333Y51238265D01*
X-130648720Y51147134D01*
X-130340284Y50613044D01*
X-130090118Y50186640D01*
X-129905599Y49880316D01*
X-129794104Y49706466D01*
X-129778346Y49684952D01*
X-129706482Y49646959D01*
X-129547460Y49619879D01*
X-129283562Y49602888D01*
X-128897072Y49595161D01*
X-128370271Y49595875D01*
X-127958549Y49600286D01*
X-126222824Y49623134D01*
X-125895979Y50160802D01*
X-125738477Y50423502D01*
X-125622578Y50623686D01*
X-125570167Y50723413D01*
X-125569133Y50727419D01*
X-125528840Y50807106D01*
X-125418607Y51004571D01*
X-125254407Y51291669D01*
X-125052212Y51640257D01*
X-125012250Y51708669D01*
X-124455366Y52660970D01*
X-124625785Y52962386D01*
X-124725876Y53137819D01*
X-124892068Y53427350D01*
X-125105672Y53798495D01*
X-125348003Y54218774D01*
X-125505456Y54491467D01*
X-126214710Y55719134D01*
X-127984800Y55719134D01*
X-129754891Y55719134D01*
X-130638603Y54211217D01*
X-131522315Y52703301D01*
X-131818814Y52703301D01*
X-131793074Y52775674D01*
X-131679188Y53009778D01*
X-131508243Y53334608D01*
X-131295676Y53723170D01*
X-131056922Y54148468D01*
X-130807418Y54583510D01*
X-130562599Y55001301D01*
X-130337902Y55374847D01*
X-130148761Y55677153D01*
X-130010614Y55881227D01*
X-129951629Y55951967D01*
X-129878191Y56002202D01*
X-129771950Y56039772D01*
X-129609667Y56066463D01*
X-129368102Y56084058D01*
X-129024017Y56094343D01*
X-128554173Y56099101D01*
X-128022012Y56100134D01*
X-127485996Y56097737D01*
G37*
G36*
X-125059895Y57669014D02*
G01*
X-124821892Y57512844D01*
X-124670175Y57239041D01*
X-124638029Y56913029D01*
X-124725414Y56602466D01*
X-124822504Y56464773D01*
X-124889837Y56393655D01*
X-124934613Y56328656D01*
X-124948795Y56249828D01*
X-124924349Y56137221D01*
X-124853239Y55970886D01*
X-124727431Y55730874D01*
X-124538889Y55397236D01*
X-124279578Y54950022D01*
X-124061792Y54576134D01*
X-123808770Y54143938D01*
X-123621865Y53836539D01*
X-123482721Y53631974D01*
X-123372983Y53508280D01*
X-123274295Y53443497D01*
X-123168301Y53415661D01*
X-123084451Y53406779D01*
X-122799944Y53329809D01*
X-122588577Y53131612D01*
X-122404622Y52882801D01*
X-120803514Y52882801D01*
X-119202405Y52882801D01*
X-118965134Y53136801D01*
X-118698671Y53326216D01*
X-118406979Y53386666D01*
X-118123044Y53336379D01*
X-117879856Y53193579D01*
X-117710402Y52976495D01*
X-117647671Y52703351D01*
X-117703342Y52439649D01*
X-117741135Y52346534D01*
X-117761062Y52262914D01*
X-117753695Y52166716D01*
X-117709606Y52035867D01*
X-117619369Y51848294D01*
X-117473556Y51581923D01*
X-117262741Y51214682D01*
X-116977495Y50724497D01*
X-116952433Y50681467D01*
X-116721460Y50284491D01*
X-116512096Y49923988D01*
X-116343521Y49633031D01*
X-116234912Y49444692D01*
X-116215937Y49411467D01*
X-116102175Y49269074D01*
X-115939914Y49219118D01*
X-115773620Y49222244D01*
X-115422148Y49181547D01*
X-115173197Y49006586D01*
X-115032215Y48701847D01*
X-115013178Y48596480D01*
X-115033299Y48241763D01*
X-115192005Y47978180D01*
X-115477524Y47818985D01*
X-115741253Y47776978D01*
X-116115706Y47760467D01*
X-116874875Y46448134D01*
X-117188523Y45906942D01*
X-117427558Y45493174D01*
X-117600531Y45186745D01*
X-117715988Y44967572D01*
X-117782478Y44815572D01*
X-117808550Y44710660D01*
X-117802751Y44632754D01*
X-117773629Y44561770D01*
X-117729733Y44477624D01*
X-117721114Y44459932D01*
X-117642998Y44262322D01*
X-117645819Y44102956D01*
X-117731568Y43890195D01*
X-117733595Y43885919D01*
X-117947127Y43590267D01*
X-118217601Y43440182D01*
X-118513891Y43436604D01*
X-118804870Y43580469D01*
X-119042819Y43846464D01*
X-119247504Y44162134D01*
X-120841985Y44162134D01*
X-121398364Y44161268D01*
X-121807835Y44157152D01*
X-122092822Y44147512D01*
X-122275748Y44130071D01*
X-122379035Y44102555D01*
X-122425107Y44062687D01*
X-122436386Y44008193D01*
X-122436467Y44000327D01*
X-122506226Y43827721D01*
X-122678893Y43639862D01*
X-122899552Y43482866D01*
X-123113290Y43402845D01*
X-123151212Y43400134D01*
X-123389583Y43467930D01*
X-123637464Y43638177D01*
X-123830064Y43861162D01*
X-123878823Y43958418D01*
X-123903740Y44147500D01*
X-123874536Y44370822D01*
X-123807309Y44564966D01*
X-123718154Y44666510D01*
X-123698184Y44670134D01*
X-123626972Y44724160D01*
X-123670092Y44889882D01*
X-123820012Y45158650D01*
X-123987579Y45433818D01*
X-124172238Y45748575D01*
X-124233208Y45855467D01*
X-124549779Y46415500D01*
X-124795983Y46846349D01*
X-124984344Y47166488D01*
X-125127386Y47394393D01*
X-125237631Y47548539D01*
X-125327601Y47647400D01*
X-125409822Y47709451D01*
X-125496814Y47753167D01*
X-125528742Y47766735D01*
X-125619008Y47819900D01*
X-124889918Y47819900D01*
X-124847756Y47695543D01*
X-124735925Y47479944D01*
X-124595467Y47246756D01*
X-124443845Y47005780D01*
X-124337006Y46828430D01*
X-124299133Y46755628D01*
X-124259312Y46675876D01*
X-124150888Y46479341D01*
X-123990422Y46195603D01*
X-123794495Y45854280D01*
X-123569381Y45472942D01*
X-123399802Y45212906D01*
X-123261983Y45045863D01*
X-123132145Y44943505D01*
X-122986513Y44877522D01*
X-122968995Y44871435D01*
X-122741113Y44769357D01*
X-122582658Y44654978D01*
X-122563900Y44631428D01*
X-122512013Y44585891D01*
X-122408716Y44552035D01*
X-122232118Y44528241D01*
X-121960329Y44512890D01*
X-121571461Y44504361D01*
X-121043621Y44501037D01*
X-120798122Y44500801D01*
X-120224689Y44501335D01*
X-119795333Y44504782D01*
X-119484798Y44513907D01*
X-119267827Y44531475D01*
X-119119164Y44560251D01*
X-119013553Y44603002D01*
X-118925738Y44662493D01*
X-118865026Y44712467D01*
X-118649640Y44852389D01*
X-118445815Y44922312D01*
X-118418042Y44924134D01*
X-118292407Y44947886D01*
X-118171921Y45037007D01*
X-118032437Y45218292D01*
X-117849811Y45518537D01*
X-117793505Y45617232D01*
X-117695139Y45789769D01*
X-117531864Y46074793D01*
X-117323318Y46438077D01*
X-117089139Y46845393D01*
X-116989353Y47018777D01*
X-116735765Y47466115D01*
X-116561246Y47793772D01*
X-116455363Y48025813D01*
X-116407684Y48186301D01*
X-116407774Y48299303D01*
X-116418454Y48335566D01*
X-116445431Y48571015D01*
X-116410503Y48678619D01*
X-116399337Y48759882D01*
X-116436084Y48899351D01*
X-116528953Y49114151D01*
X-116686156Y49421407D01*
X-116915903Y49838245D01*
X-117226404Y50381788D01*
X-117230372Y50388663D01*
X-117529348Y50905132D01*
X-117757953Y51293113D01*
X-117930115Y51570975D01*
X-118059764Y51757089D01*
X-118160829Y51869823D01*
X-118247238Y51927547D01*
X-118332921Y51948632D01*
X-118415375Y51951467D01*
X-118693914Y52011856D01*
X-118952108Y52205468D01*
X-119206108Y52459468D01*
X-120787318Y52459467D01*
X-122368529Y52459467D01*
X-122605800Y52205467D01*
X-122877454Y51999237D01*
X-123084269Y51951161D01*
X-123185183Y51939490D01*
X-123279551Y51890011D01*
X-123384988Y51780599D01*
X-123519109Y51589133D01*
X-123699528Y51293490D01*
X-123943795Y50871661D01*
X-124180763Y50458787D01*
X-124403648Y50071742D01*
X-124591287Y49747184D01*
X-124722520Y49521773D01*
X-124748129Y49478285D01*
X-124860191Y49272815D01*
X-124886842Y49137651D01*
X-124833956Y49000477D01*
X-124792655Y48930181D01*
X-124645353Y48728083D01*
X-124531464Y48684231D01*
X-124431230Y48796104D01*
X-124392533Y48879110D01*
X-124318827Y49026639D01*
X-124174847Y49291787D01*
X-123976373Y49646334D01*
X-123739186Y50062063D01*
X-123502979Y50469801D01*
X-122712547Y51824467D01*
X-120785963Y51847251D01*
X-120052561Y51851916D01*
X-119484777Y51846503D01*
X-119079193Y51830893D01*
X-118832387Y51804969D01*
X-118747591Y51777258D01*
X-118665430Y51672173D01*
X-118519419Y51449994D01*
X-118328760Y51141192D01*
X-118112655Y50776239D01*
X-118066312Y50696141D01*
X-117819143Y50268579D01*
X-117567989Y49836502D01*
X-117342333Y49450499D01*
X-117172644Y49162813D01*
X-117015399Y48885476D01*
X-116900193Y48657533D01*
X-116849219Y48523325D01*
X-116848467Y48515051D01*
X-116888821Y48419122D01*
X-116999970Y48203348D01*
X-117167043Y47893951D01*
X-117375171Y47517154D01*
X-117609483Y47099178D01*
X-117855109Y46666244D01*
X-118097180Y46244575D01*
X-118320824Y45860393D01*
X-118511173Y45539918D01*
X-118653356Y45309374D01*
X-118728792Y45199301D01*
X-118807021Y45162135D01*
X-118982481Y45134003D01*
X-119270688Y45114078D01*
X-119687156Y45101533D01*
X-120247403Y45095541D01*
X-120690000Y45094764D01*
X-121239560Y45097848D01*
X-121733758Y45105759D01*
X-122146902Y45117668D01*
X-122453299Y45132743D01*
X-122627257Y45150155D01*
X-122655107Y45158264D01*
X-122750987Y45271872D01*
X-122921468Y45531365D01*
X-123163654Y45932068D01*
X-123474652Y46469308D01*
X-123558883Y46617467D01*
X-123916104Y47246656D01*
X-124191434Y47729255D01*
X-124385580Y48066495D01*
X-124499250Y48259608D01*
X-124531186Y48309536D01*
X-124598076Y48284928D01*
X-124705485Y48165727D01*
X-124813530Y48006371D01*
X-124882328Y47861296D01*
X-124889918Y47819900D01*
X-125619008Y47819900D01*
X-125774927Y47911734D01*
X-125975571Y48096884D01*
X-125975663Y48097002D01*
X-126143837Y48310801D01*
X-127818819Y48310801D01*
X-129493802Y48310801D01*
X-129711634Y48050153D01*
X-129943015Y47847355D01*
X-130213315Y47775492D01*
X-130222637Y47774986D01*
X-130363598Y47758238D01*
X-130477378Y47705591D01*
X-130590962Y47589144D01*
X-130731336Y47380994D01*
X-130925483Y47053240D01*
X-130932691Y47040801D01*
X-131174475Y46625221D01*
X-131453563Y46148255D01*
X-131720683Y45694046D01*
X-131797294Y45564361D01*
X-132245014Y44807588D01*
X-132082074Y44600443D01*
X-131939145Y44296574D01*
X-131956411Y43975320D01*
X-132121814Y43681946D01*
X-132364329Y43504701D01*
X-132653893Y43440527D01*
X-132944840Y43480089D01*
X-133191505Y43614051D01*
X-133348222Y43833076D01*
X-133374904Y43938143D01*
X-133389018Y43999568D01*
X-133426119Y44045686D01*
X-133508255Y44079088D01*
X-133657472Y44102366D01*
X-133895820Y44118111D01*
X-134245347Y44128915D01*
X-134728099Y44137370D01*
X-135115300Y44142721D01*
X-135695256Y44149660D01*
X-136127505Y44151686D01*
X-136433644Y44147118D01*
X-136635268Y44134275D01*
X-136753973Y44111477D01*
X-136811355Y44077044D01*
X-136829010Y44029295D01*
X-136829800Y44009312D01*
X-136903368Y43812926D01*
X-137089611Y43621570D01*
X-137336839Y43480991D01*
X-137468870Y43443738D01*
X-137749621Y43455903D01*
X-137944774Y43526212D01*
X-138176828Y43744092D01*
X-138294971Y44042409D01*
X-138281743Y44362419D01*
X-138231655Y44491412D01*
X-138141202Y44689704D01*
X-138100038Y44826091D01*
X-138099800Y44831684D01*
X-138140657Y44936338D01*
X-138250897Y45150936D01*
X-138412025Y45440676D01*
X-138544300Y45668066D01*
X-138790365Y46088423D01*
X-139058117Y46553026D01*
X-139300987Y46980878D01*
X-139369304Y47103016D01*
X-139749809Y47786876D01*
X-140115462Y47781348D01*
X-140474579Y47834614D01*
X-140713617Y48007263D01*
X-140832847Y48299556D01*
X-140847618Y48489548D01*
X-140787837Y48783312D01*
X-139458935Y48783312D01*
X-139439153Y48646625D01*
X-139435618Y48415904D01*
X-139438621Y48331241D01*
X-139427675Y48092907D01*
X-139356467Y47857065D01*
X-139205200Y47566678D01*
X-139130075Y47442241D01*
X-138958995Y47159470D01*
X-138733520Y46779010D01*
X-138482832Y46350444D01*
X-138236109Y45923356D01*
X-138233593Y45918967D01*
X-137968683Y45471647D01*
X-137766313Y45165164D01*
X-137617295Y44986969D01*
X-137512438Y44924509D01*
X-137505225Y44924134D01*
X-137339149Y44870641D01*
X-137138376Y44739441D01*
X-137109688Y44715143D01*
X-137025843Y44645059D01*
X-136939388Y44592669D01*
X-136825813Y44555355D01*
X-136660608Y44530498D01*
X-136419260Y44515479D01*
X-136077260Y44507681D01*
X-135610096Y44504483D01*
X-135128422Y44503476D01*
X-134539436Y44503571D01*
X-134096373Y44507245D01*
X-133775831Y44516500D01*
X-133554406Y44533337D01*
X-133408697Y44559757D01*
X-133315301Y44597762D01*
X-133250814Y44649354D01*
X-133235810Y44665335D01*
X-133038970Y44808513D01*
X-132846830Y44882600D01*
X-132753518Y44918933D01*
X-132653391Y44999084D01*
X-132532978Y45141973D01*
X-132378809Y45366520D01*
X-132177415Y45691648D01*
X-131915325Y46136276D01*
X-131746078Y46428801D01*
X-131455214Y46935703D01*
X-131240217Y47318970D01*
X-131091307Y47601042D01*
X-130998702Y47804360D01*
X-130952621Y47951363D01*
X-130943283Y48064492D01*
X-130960906Y48166188D01*
X-130972052Y48204597D01*
X-131004688Y48495377D01*
X-124211099Y48495377D01*
X-124171229Y48374950D01*
X-124062201Y48152672D01*
X-123904917Y47870090D01*
X-123849010Y47775710D01*
X-123648742Y47439291D01*
X-123401197Y47018649D01*
X-123143194Y46576534D01*
X-122983058Y46299967D01*
X-122482563Y45432134D01*
X-120702682Y45434724D01*
X-118922800Y45437313D01*
X-118055306Y46969219D01*
X-117187812Y48501125D01*
X-118088840Y50058643D01*
X-118989868Y51616161D01*
X-120733066Y51593314D01*
X-122476264Y51570467D01*
X-123341998Y50088801D01*
X-123605217Y49633280D01*
X-123836547Y49223328D01*
X-124022989Y48882776D01*
X-124151545Y48635456D01*
X-124209217Y48505199D01*
X-124211099Y48495377D01*
X-131004688Y48495377D01*
X-131013295Y48572060D01*
X-130982549Y48752445D01*
X-130958346Y48879856D01*
X-130970781Y49014831D01*
X-131031935Y49189155D01*
X-131153886Y49434611D01*
X-131348715Y49782985D01*
X-131423701Y49913218D01*
X-131655169Y50315859D01*
X-131883507Y50716606D01*
X-132079650Y51064256D01*
X-132196261Y51274134D01*
X-132376015Y51594657D01*
X-132506702Y51793949D01*
X-132617956Y51900713D01*
X-132739415Y51943652D01*
X-132895641Y51951467D01*
X-133148760Y52002753D01*
X-133365992Y52180110D01*
X-133387808Y52205468D01*
X-133601535Y52459468D01*
X-135194776Y52459467D01*
X-136788017Y52459467D01*
X-137027752Y52205467D01*
X-137301026Y51999612D01*
X-137509015Y51951467D01*
X-137595070Y51942375D01*
X-137678146Y51902712D01*
X-137771704Y51813901D01*
X-137889207Y51657362D01*
X-138044115Y51414518D01*
X-138249891Y51066790D01*
X-138519997Y50595600D01*
X-138623671Y50413145D01*
X-138882823Y49949301D01*
X-139107760Y49532720D01*
X-139286636Y49186515D01*
X-139407607Y48933800D01*
X-139458826Y48797688D01*
X-139458935Y48783312D01*
X-140787837Y48783312D01*
X-140779377Y48824882D01*
X-140595174Y49074019D01*
X-140325793Y49208045D01*
X-140076309Y49214067D01*
X-139952045Y49199411D01*
X-139853473Y49218385D01*
X-139757241Y49294860D01*
X-139639995Y49452708D01*
X-139478385Y49715802D01*
X-139318670Y49988558D01*
X-139073692Y50407818D01*
X-138811148Y50855272D01*
X-138571432Y51262145D01*
X-138465822Y51440564D01*
X-138279202Y51769692D01*
X-138177484Y51993612D01*
X-138148442Y52145825D01*
X-138172257Y52244898D01*
X-138286891Y52530749D01*
X-138311681Y52746714D01*
X-138263430Y52940136D01*
X-138103517Y53205219D01*
X-137856099Y53348222D01*
X-137534437Y53388108D01*
X-137277492Y53366218D01*
X-137101675Y53269535D01*
X-136976382Y53129680D01*
X-136772024Y52868559D01*
X-135171079Y52878808D01*
X-134572561Y52887140D01*
X-134098795Y52903234D01*
X-133762220Y52926354D01*
X-133575273Y52955765D01*
X-133540328Y52975346D01*
X-133479155Y53059651D01*
X-132201451Y53059651D01*
X-132180209Y52991518D01*
X-132099645Y52710843D01*
X-132107219Y52458408D01*
X-132176587Y52320547D01*
X-132175553Y52226577D01*
X-132094326Y52016203D01*
X-131929666Y51682784D01*
X-131678335Y51219678D01*
X-131404598Y50737280D01*
X-131111710Y50230781D01*
X-130887921Y49853178D01*
X-130719418Y49585724D01*
X-130592385Y49409671D01*
X-130493007Y49306270D01*
X-130407470Y49256774D01*
X-130321959Y49242434D01*
X-130302872Y49242134D01*
X-130047524Y49168403D01*
X-129783695Y48951620D01*
X-129506133Y48661106D01*
X-127842433Y48655287D01*
X-126178733Y48649467D01*
X-125882400Y48945801D01*
X-125685090Y49119085D01*
X-125517302Y49225794D01*
X-125459659Y49242134D01*
X-125324687Y49311128D01*
X-125279047Y49383386D01*
X-125220015Y49500131D01*
X-125090036Y49736000D01*
X-124904210Y50064272D01*
X-124677637Y50458231D01*
X-124470064Y50814914D01*
X-124198858Y51281229D01*
X-124004245Y51626387D01*
X-123875925Y51874567D01*
X-123803600Y52049952D01*
X-123776969Y52176722D01*
X-123785733Y52279059D01*
X-123811701Y52360630D01*
X-123865459Y52643779D01*
X-123815637Y52917403D01*
X-123787364Y53025839D01*
X-123781046Y53131909D01*
X-123806432Y53258646D01*
X-123873272Y53429084D01*
X-123991314Y53666258D01*
X-124170310Y53993201D01*
X-124420009Y54432948D01*
X-124561956Y54680602D01*
X-124874786Y55218435D01*
X-125123874Y55627426D01*
X-125323979Y55928770D01*
X-125489860Y56143666D01*
X-125636274Y56293307D01*
X-125741944Y56375301D01*
X-126083131Y56608134D01*
X-128027466Y56608134D01*
X-128750144Y56604369D01*
X-129304684Y56593043D01*
X-129692114Y56574108D01*
X-129913462Y56547517D01*
X-129971800Y56519147D01*
X-130042317Y56431348D01*
X-130216153Y56329018D01*
X-130257974Y56310589D01*
X-130367898Y56250435D01*
X-130481188Y56151075D01*
X-130612016Y55992564D01*
X-130774554Y55754955D01*
X-130982974Y55418305D01*
X-131251446Y54962666D01*
X-131408049Y54691944D01*
X-131701880Y54178682D01*
X-131918386Y53789841D01*
X-132067082Y53504468D01*
X-132157483Y53301613D01*
X-132199101Y53160325D01*
X-132201451Y53059651D01*
X-133479155Y53059651D01*
X-133396514Y53173542D01*
X-133154723Y53326938D01*
X-132886310Y53390739D01*
X-132878556Y53390801D01*
X-132681977Y53416306D01*
X-132544797Y53521682D01*
X-132427968Y53708301D01*
X-132300617Y53938987D01*
X-132196165Y54120729D01*
X-132176666Y54152801D01*
X-132016238Y54417195D01*
X-131824205Y54745239D01*
X-131618149Y55105407D01*
X-131415655Y55466171D01*
X-131234305Y55796007D01*
X-131091685Y56063389D01*
X-131005376Y56236789D01*
X-130987800Y56284343D01*
X-131036052Y56405249D01*
X-131152598Y56579235D01*
X-131157133Y56585031D01*
X-131304136Y56868732D01*
X-131287462Y57150937D01*
X-131107274Y57448305D01*
X-130927471Y57622611D01*
X-130730392Y57696535D01*
X-130520752Y57708801D01*
X-130253440Y57684921D01*
X-130076653Y57592842D01*
X-129977945Y57485716D01*
X-129856462Y57298905D01*
X-129802619Y57152067D01*
X-129802467Y57147049D01*
X-129774452Y57108284D01*
X-129678051Y57078874D01*
X-129494732Y57057670D01*
X-129205962Y57043521D01*
X-128793209Y57035278D01*
X-128237940Y57031791D01*
X-127939800Y57031467D01*
X-127315070Y57033206D01*
X-126841112Y57039188D01*
X-126499394Y57050563D01*
X-126271383Y57068482D01*
X-126138548Y57094094D01*
X-126082354Y57128549D01*
X-126077133Y57147049D01*
X-126027988Y57289544D01*
X-125908979Y57476305D01*
X-125901655Y57485716D01*
X-125666858Y57660188D01*
X-125365818Y57721801D01*
X-125059895Y57669014D01*
G37*
%TD*%
D12*
%TO.C,J14*%
X110401920Y53035200D03*
X117900000Y53032660D03*
X125398080Y53035200D03*
X112903820Y50533300D03*
X122896180Y50533300D03*
%TD*%
M02*
