%TF.GenerationSoftware,KiCad,Pcbnew,9.0.0*%
%TF.CreationDate,2025-04-26T10:59:41+02:00*%
%TF.ProjectId,Faderbay,46616465-7262-4617-992e-6b696361645f,rev?*%
%TF.SameCoordinates,Original*%
%TF.FileFunction,Soldermask,Bot*%
%TF.FilePolarity,Negative*%
%FSLAX46Y46*%
G04 Gerber Fmt 4.6, Leading zero omitted, Abs format (unit mm)*
G04 Created by KiCad (PCBNEW 9.0.0) date 2025-04-26 10:59:41*
%MOMM*%
%LPD*%
G01*
G04 APERTURE LIST*
%ADD10C,2.250000*%
%ADD11C,3.000000*%
%ADD12C,1.200000*%
%ADD13C,0.650000*%
%ADD14O,0.950000X0.650000*%
%ADD15O,0.800000X1.400000*%
%ADD16C,3.200000*%
%ADD17C,1.400000*%
%ADD18C,2.499360*%
%ADD19R,4.500000X2.000000*%
%ADD20O,4.000000X2.000000*%
%ADD21O,2.000000X4.000000*%
%ADD22C,1.650000*%
%ADD23C,4.708000*%
%ADD24C,1.950000*%
G04 APERTURE END LIST*
D10*
%TO.C,RV6*%
X-55150000Y26250000D03*
X-51350000Y26250000D03*
X-58950000Y26250000D03*
X-47550000Y26250000D03*
X-55150000Y-61250000D03*
X-51350000Y-61250000D03*
D11*
X-53250000Y8350000D03*
X-53250000Y-43350000D03*
%TD*%
D12*
%TO.C,J13*%
X-13932000Y61928000D03*
X-13932000Y55928000D03*
%TD*%
D10*
%TO.C,RV4*%
X-97650000Y26250000D03*
X-93850000Y26250000D03*
X-101450000Y26250000D03*
X-90050000Y26250000D03*
X-97650000Y-61250000D03*
X-93850000Y-61250000D03*
D11*
X-95750000Y8350000D03*
X-95750000Y-43350000D03*
%TD*%
D12*
%TO.C,J20*%
X61068000Y61928000D03*
X61068000Y55928000D03*
%TD*%
D10*
%TO.C,RV3*%
X-118900000Y26250000D03*
X-115100000Y26250000D03*
X-122700000Y26250000D03*
X-111300000Y26250000D03*
X-118900000Y-61250000D03*
X-115100000Y-61250000D03*
D11*
X-117000000Y8350000D03*
X-117000000Y-43350000D03*
%TD*%
D10*
%TO.C,RV13*%
X93700000Y26350000D03*
X97500000Y26350000D03*
X89900000Y26350000D03*
X101300000Y26350000D03*
X93700000Y-61150000D03*
X97500000Y-61150000D03*
D11*
X95600000Y8450000D03*
X95600000Y-43250000D03*
%TD*%
D13*
%TO.C,J2*%
X144610000Y56364000D03*
D14*
X137410000Y56364000D03*
D15*
X145500000Y63564000D03*
X145140000Y57614000D03*
X136880000Y57614000D03*
X136520000Y63564000D03*
%TD*%
D10*
%TO.C,RV10*%
X29850000Y26250000D03*
X33650000Y26250000D03*
X26050000Y26250000D03*
X37450000Y26250000D03*
X29900000Y-61250000D03*
X33650000Y-61250000D03*
D11*
X31750000Y8350000D03*
X31750000Y-43350000D03*
%TD*%
D12*
%TO.C,J16*%
X11068000Y61928000D03*
X11068000Y55928000D03*
%TD*%
D10*
%TO.C,RV9*%
X8550000Y26250000D03*
X12350000Y26250000D03*
X4750000Y26250000D03*
X16150000Y26250000D03*
X8550000Y-61250000D03*
X12350000Y-61250000D03*
D11*
X10450000Y8350000D03*
X10450000Y-43350000D03*
%TD*%
D12*
%TO.C,J10*%
X-51432000Y61928000D03*
X-51432000Y55928000D03*
%TD*%
%TO.C,J11*%
X-38932000Y61928000D03*
X-38932000Y55928000D03*
%TD*%
D10*
%TO.C,RV2*%
X-140150000Y26250000D03*
X-136350000Y26250000D03*
X-143950000Y26250000D03*
X-132550000Y26250000D03*
X-140150000Y-61250000D03*
X-136350000Y-61250000D03*
D11*
X-138250000Y8350000D03*
X-138250000Y-43350000D03*
%TD*%
D10*
%TO.C,RV7*%
X-33950000Y26250000D03*
X-30150000Y26250000D03*
X-37750000Y26250000D03*
X-26350000Y26250000D03*
X-33950000Y-61250000D03*
X-30150000Y-61250000D03*
D11*
X-32050000Y8350000D03*
X-32050000Y-43350000D03*
%TD*%
D12*
%TO.C,J6*%
X-88932000Y61928000D03*
X-88932000Y55928000D03*
%TD*%
D10*
%TO.C,RV11*%
X51100000Y26250000D03*
X54900000Y26250000D03*
X47300000Y26250000D03*
X58700000Y26250000D03*
X51150000Y-61250000D03*
X54900000Y-61250000D03*
D11*
X53000000Y8350000D03*
X53000000Y-43350000D03*
%TD*%
D12*
%TO.C,J18*%
X36068000Y61928000D03*
X36068000Y55928000D03*
%TD*%
D10*
%TO.C,RV16*%
X157450000Y26250000D03*
X161250000Y26250000D03*
X153650000Y26250000D03*
X165050000Y26250000D03*
X157450000Y-61250000D03*
X161250000Y-61250000D03*
D11*
X159350000Y8350000D03*
X159350000Y-43350000D03*
%TD*%
D12*
%TO.C,J21*%
X73568000Y61928000D03*
X73568000Y55928000D03*
%TD*%
%TO.C,J7*%
X-76432000Y61928000D03*
X-76432000Y55928000D03*
%TD*%
D10*
%TO.C,RV1*%
X-161450000Y26250000D03*
X-157650000Y26250000D03*
X-165250000Y26250000D03*
X-153850000Y26250000D03*
X-161450000Y-61250000D03*
X-157650000Y-61250000D03*
D11*
X-159550000Y8350000D03*
X-159550000Y-43350000D03*
%TD*%
D12*
%TO.C,J19*%
X48568000Y61928000D03*
X48568000Y55928000D03*
%TD*%
D16*
%TO.C,H1*%
X-174091600Y59588400D03*
%TD*%
D10*
%TO.C,RV15*%
X136200000Y26250000D03*
X140000000Y26250000D03*
X132400000Y26250000D03*
X143800000Y26250000D03*
X136200000Y-61250000D03*
X140000000Y-61250000D03*
D11*
X138100000Y8350000D03*
X138100000Y-43350000D03*
%TD*%
D12*
%TO.C,J17*%
X23568000Y61864000D03*
X23568000Y55864000D03*
%TD*%
D10*
%TO.C,RV5*%
X-76400000Y26250000D03*
X-72600000Y26250000D03*
X-80200000Y26250000D03*
X-68800000Y26250000D03*
X-76400000Y-61250000D03*
X-72600000Y-61250000D03*
D11*
X-74500000Y8350000D03*
X-74500000Y-43350000D03*
%TD*%
D12*
%TO.C,J8*%
X-63932000Y61928000D03*
X-63932000Y55928000D03*
%TD*%
D16*
%TO.C,H4*%
X-174091600Y-58470800D03*
%TD*%
D17*
%TO.C,D1*%
X173024800Y60350400D03*
X175564800Y60350400D03*
%TD*%
D16*
%TO.C,H2*%
X151180800Y43942000D03*
%TD*%
%TO.C,H3*%
X174040800Y-58470800D03*
%TD*%
D12*
%TO.C,J22*%
X86068000Y61928000D03*
X86068000Y55928000D03*
%TD*%
%TO.C,J15*%
X-1432000Y61928000D03*
X-1432000Y55928000D03*
%TD*%
D18*
%TO.C,J14*%
X122901260Y63030100D03*
X112898740Y63030100D03*
X110401920Y53035200D03*
X117900000Y53032660D03*
X125398080Y53035200D03*
X112903820Y50533300D03*
X122896180Y50533300D03*
%TD*%
D12*
%TO.C,J12*%
X-26432000Y61928000D03*
X-26432000Y55928000D03*
%TD*%
D19*
%TO.C,J1*%
X154100000Y52474000D03*
D20*
X154100000Y58674000D03*
D21*
X149400000Y55674000D03*
%TD*%
D22*
%TO.C,SW3*%
X133644000Y33898000D03*
X138644000Y33898000D03*
X136144000Y33898000D03*
X133644000Y48398000D03*
X138644000Y48398000D03*
D23*
X130644000Y41398000D03*
X141644000Y41398000D03*
%TD*%
D10*
%TO.C,RV14*%
X114950000Y26250000D03*
X118750000Y26250000D03*
X111150000Y26250000D03*
X122550000Y26250000D03*
X114950000Y-61250000D03*
X118750000Y-61250000D03*
D11*
X116850000Y8350000D03*
X116850000Y-43350000D03*
%TD*%
D24*
%TO.C,S1*%
X166500000Y53900000D03*
X166500000Y50700000D03*
X166500000Y47500000D03*
X163500000Y47500000D03*
X163500000Y50700000D03*
X163500000Y53900000D03*
X168350000Y44900000D03*
%TD*%
D10*
%TO.C,RV12*%
X72350000Y26250000D03*
X76150000Y26250000D03*
X68550000Y26250000D03*
X79950000Y26250000D03*
X72350000Y-61250000D03*
X76150000Y-61250000D03*
D11*
X74250000Y8350000D03*
X74250000Y-43350000D03*
%TD*%
D12*
%TO.C,J9*%
X101568000Y61928000D03*
X101568000Y55928000D03*
%TD*%
D10*
%TO.C,RV8*%
X-12700000Y26250000D03*
X-8900000Y26250000D03*
X-16500000Y26250000D03*
X-5100000Y26250000D03*
X-12700000Y-61250000D03*
X-8900000Y-61250000D03*
D11*
X-10800000Y8350000D03*
X-10800000Y-43350000D03*
%TD*%
D12*
%TO.C,J5*%
X-101472000Y61996000D03*
X-101472000Y55996000D03*
%TD*%
M02*
