M48
; DRILL file {KiCad 9.0.0} date 2025-04-26T10:59:37+0200
; FORMAT={-:-/ absolute / metric / decimal}
; #@! TF.CreationDate,2025-04-26T10:59:37+02:00
; #@! TF.GenerationSoftware,Kicad,Pcbnew,9.0.0
; #@! TF.FileFunction,NonPlated,1,4,NPTH
FMAT,2
METRIC
; #@! TA.AperFunction,NonPlated,NPTH,ComponentDrill
T1C0.650
; #@! TA.AperFunction,NonPlated,NPTH,ComponentDrill
T2C1.200
; #@! TA.AperFunction,NonPlated,NPTH,ComponentDrill
T3C1.397
; #@! TA.AperFunction,NonPlated,NPTH,ComponentDrill
T4C3.200
%
G90
G05
T1
X144.61Y56.364
T2
X-101.472Y61.996
X-101.472Y55.996
X-88.932Y61.928
X-88.932Y55.928
X-76.432Y61.928
X-76.432Y55.928
X-63.932Y61.928
X-63.932Y55.928
X-51.432Y61.928
X-51.432Y55.928
X-38.932Y61.928
X-38.932Y55.928
X-26.432Y61.928
X-26.432Y55.928
X-13.932Y61.928
X-13.932Y55.928
X-1.432Y61.928
X-1.432Y55.928
X11.068Y61.928
X11.068Y55.928
X23.568Y61.864
X23.568Y55.864
X36.068Y61.928
X36.068Y55.928
X48.568Y61.928
X48.568Y55.928
X61.068Y61.928
X61.068Y55.928
X73.568Y61.928
X73.568Y55.928
X86.068Y61.928
X86.068Y55.928
X101.568Y61.928
X101.568Y55.928
T3
X112.899Y63.03
X122.901Y63.03
T4
X-174.092Y59.588
X-174.092Y-58.471
X151.181Y43.942
X174.041Y-58.471
T1
G00X137.56Y56.364
M15
G01X137.26Y56.364
M16
G05
M30
