M48
; DRILL file {KiCad 9.0.0} date 2025-04-26T10:59:37+0200
; FORMAT={-:-/ absolute / metric / decimal}
; #@! TF.CreationDate,2025-04-26T10:59:37+02:00
; #@! TF.GenerationSoftware,Kicad,Pcbnew,9.0.0
; #@! TF.FileFunction,Plated,1,4,PTH
FMAT,2
METRIC
; #@! TA.AperFunction,Plated,PTH,ViaDrill
T1C0.300
; #@! TA.AperFunction,Plated,PTH,ViaDrill
T2C0.500
; #@! TA.AperFunction,Plated,PTH,ComponentDrill
T3C0.500
; #@! TA.AperFunction,Plated,PTH,ComponentDrill
T4C0.900
; #@! TA.AperFunction,Plated,PTH,ComponentDrill
T5C1.000
; #@! TA.AperFunction,Plated,PTH,ComponentDrill
T6C1.100
; #@! TA.AperFunction,Plated,PTH,ComponentDrill
T7C1.300
; #@! TA.AperFunction,Plated,PTH,ComponentDrill
T8C1.397
; #@! TA.AperFunction,Plated,PTH,ComponentDrill
T9C1.500
; #@! TA.AperFunction,Plated,PTH,ComponentDrill
T10C2.000
; #@! TA.AperFunction,Plated,PTH,ComponentDrill
T11C3.139
%
G90
G05
T1
X-151.079Y23.216
X-150.927Y32.918
X-149.682Y29.185
X-147.269Y29.464
X-145.391Y30.278
X-144.294Y30.078
X-143.51Y31.496
X-143.51Y29.921
X-142.596Y29.769
X-141.732Y29.667
X-140.716Y30.937
X-137.363Y33.122
X-130.302Y32.918
X-106.045Y41.148
X-106.045Y35.687
X-104.546Y18.237
X-102.87Y38.354
X-100.965Y39.243
X-100.432Y31.344
X-99.568Y45.72
X-99.466Y33.68
X-98.501Y32.156
X-97.899Y29.761
X-94.285Y33.731
X-93.32Y30.632
X-92.456Y38.354
X-91.745Y50.343
X-91.745Y43.485
X-87.376Y40.894
X-87.365Y35.61
X-82.55Y40.767
X-82.55Y35.433
X-82.093Y36.982
X-81.077Y50.241
X-79.658Y38.05
X-76.149Y33.274
X-75.895Y43.028
X-74.27Y36.83
X-71.628Y32.806
X-69.215Y38.1
X-67.45Y50.343
X-67.259Y33.731
X-64.008Y40.767
X-64.008Y35.306
X-58.75Y40.538
X-58.75Y35.458
X-57.833Y42.39
X-55.575Y37.998
X-54.864Y50.038
X-53.67Y38.887
X-50.19Y43.536
X-49.418Y42.774
X-48.768Y43.536
X-48.057Y42.723
X-46.454Y44.168
X-44.78Y37.998
X-44.399Y43.891
X-42.012Y50.19
X-39.319Y40.665
X-39.319Y35.458
X-32.904Y40.64
X-32.904Y35.56
X-29.983Y38.1
X-29.566Y50.14
X-27.852Y39.014
X-25.705Y33.223
X-19.036Y38.1
X-18.328Y48.057
X-17.374Y49.936
X-17.221Y48.87
X-17.17Y34.036
X-15.85Y49.174
X-15.494Y42.418
X-14.694Y42.418
X-13.905Y40.691
X-13.905Y35.56
X-13.005Y29.911
X-12.7Y50.394
X-12.446Y49.632
X-12.294Y30.48
X-12.095Y48.717
X-11.887Y36.525
X-11.786Y47.955
X-11.582Y31.242
X-11.074Y32.207
X-10.973Y43.485
X-10.82Y37.353
X-10.77Y44.806
X-10.581Y33.157
X-9.754Y38.659
X-9.042Y39.929
X-8.331Y41.163
X-8.128Y32.868
X-7.823Y42.469
X-4.166Y34.29
X-4.115Y35.408
X-3.607Y46.838
X-2.36Y41.989
X-1.738Y40.474
X-0.914Y38.659
X-0.152Y37.236
X3.861Y51.776
X4.877Y32.918
X4.928Y35.433
X4.928Y34.188
X7.417Y47.019
X8.179Y32.004
X9.042Y31.191
X9.906Y30.328
X19.05Y50.648
X19.761Y47.092
X19.812Y45.093
X23.063Y33.213
X24.765Y45.593
X24.841Y30.582
X26.213Y38.811
X27.686Y34.087
X27.737Y29.769
X30.429Y43.18
X31.801Y50.444
X33.579Y38.456
X34.711Y42.977
X36.373Y38.202
X36.424Y36.762
X36.881Y23.571
X37.643Y22.86
X38.049Y33.477
X38.506Y22.149
X38.608Y43.688
X39.421Y44.552
X40.945Y47.295
X41.446Y35.255
X42.367Y29.667
X42.469Y22.149
X43.282Y22.86
X43.434Y41.758
X43.434Y29.667
X43.813Y42.462
X44.399Y29.616
X44.907Y35.154
X45.161Y24.232
X45.314Y50.495
X45.364Y29.616
X45.425Y42.766
X46.177Y29.769
X46.584Y28.916
X46.682Y38.266
X47.195Y37.652
X47.701Y37.033
X47.955Y42.672
X48.209Y36.373
X49.53Y44.552
X51.714Y34.493
X51.816Y39.624
X52.019Y41.262
X52.172Y36.982
X53.188Y41.088
X53.34Y37.135
X54.356Y33.274
X54.458Y48.26
X56.185Y44.399
X62.992Y37.338
X63.703Y33.528
X66.033Y28.767
X66.04Y46.99
X69.139Y48.311
X74.422Y38.862
X79.248Y46.954
X83.16Y50.19
X87.579Y38.862
X87.986Y28.346
X92.304Y46.954
X97.79Y51.664
X100.533Y38.811
X104.902Y47.015
X108.349Y29.051
X112.42Y34.493
X113.233Y38.811
X117.145Y41.707
X118.059Y50.495
X122.58Y37.495
X124.074Y46.969
X124.642Y46.401
X125.984Y36.312
X127.406Y36.373
X129.337Y29.362
X134.772Y30.427
X135.331Y55.441
X137.414Y55.034
X137.617Y30.429
X139.751Y54.272
X140.919Y56.554
X141.173Y51.765
X141.884Y54.73
X151.282Y28.55
X152.197Y34.671
X152.197Y32.893
X157.937Y37.41
X159.512Y33.223
X162.255Y39.878
X163.017Y36.46
X163.932Y37.592
X164.084Y35.357
X164.135Y36.474
X164.389Y23.266
X166.624Y35.204
X169.621Y37.592
X170.586Y40.894
X171.044Y45.009
X171.145Y46.939
X171.298Y38.71
X172.263Y36.728
X173.533Y54.356
X174.752Y43.79
X177.749Y49.276
T2
X-97.638Y58.064
X-85.141Y58.064
X-72.644Y58.115
X-60.147Y58.064
X-47.6Y58.064
X-35.204Y58.064
X-22.606Y58.064
X-10.16Y58.064
X2.388Y58.064
X14.834Y58.064
X27.33Y58.064
X39.827Y58.064
X52.324Y58.064
X64.821Y58.115
X77.318Y58.064
X89.814Y58.064
T4
X173.025Y60.35
X175.565Y60.35
T6
X133.644Y48.398
X133.644Y33.898
X136.144Y33.898
X138.644Y48.398
X138.644Y33.898
T7
X163.5Y53.9
X163.5Y50.7
X163.5Y47.5
X166.5Y53.9
X166.5Y50.7
X166.5Y47.5
X168.35Y44.9
T8
X110.402Y53.035
X112.904Y50.533
X117.9Y53.033
X122.896Y50.533
X125.398Y53.035
T9
X-165.25Y26.25
X-161.45Y26.25
X-161.45Y-61.25
X-157.65Y26.25
X-157.65Y-61.25
X-153.85Y26.25
X-143.95Y26.25
X-140.15Y26.25
X-140.15Y-61.25
X-136.35Y26.25
X-136.35Y-61.25
X-132.55Y26.25
X-122.7Y26.25
X-118.9Y26.25
X-118.9Y-61.25
X-115.1Y26.25
X-115.1Y-61.25
X-111.3Y26.25
X-101.45Y26.25
X-97.65Y26.25
X-97.65Y-61.25
X-93.85Y26.25
X-93.85Y-61.25
X-90.05Y26.25
X-80.2Y26.25
X-76.4Y26.25
X-76.4Y-61.25
X-72.6Y26.25
X-72.6Y-61.25
X-68.8Y26.25
X-58.95Y26.25
X-55.15Y26.25
X-55.15Y-61.25
X-51.35Y26.25
X-51.35Y-61.25
X-47.55Y26.25
X-37.75Y26.25
X-33.95Y26.25
X-33.95Y-61.25
X-30.15Y26.25
X-30.15Y-61.25
X-26.35Y26.25
X-16.5Y26.25
X-12.7Y26.25
X-12.7Y-61.25
X-8.9Y26.25
X-8.9Y-61.25
X-5.1Y26.25
X4.75Y26.25
X8.55Y26.25
X8.55Y-61.25
X12.35Y26.25
X12.35Y-61.25
X16.15Y26.25
X26.05Y26.25
X29.85Y26.25
X29.9Y-61.25
X33.65Y26.25
X33.65Y-61.25
X37.45Y26.25
X47.3Y26.25
X51.1Y26.25
X51.15Y-61.25
X54.9Y26.25
X54.9Y-61.25
X58.7Y26.25
X68.55Y26.25
X72.35Y26.25
X72.35Y-61.25
X76.15Y26.25
X76.15Y-61.25
X79.95Y26.25
X89.9Y26.35
X93.7Y26.35
X93.7Y-61.15
X97.5Y26.35
X97.5Y-61.15
X101.3Y26.35
X111.15Y26.25
X114.95Y26.25
X114.95Y-61.25
X118.75Y26.25
X118.75Y-61.25
X122.55Y26.25
X132.4Y26.25
X136.2Y26.25
X136.2Y-61.25
X140.0Y26.25
X140.0Y-61.25
X143.8Y26.25
X153.65Y26.25
X157.45Y26.25
X157.45Y-61.25
X161.25Y26.25
X161.25Y-61.25
X165.05Y26.25
T10
X-159.55Y8.35
X-159.55Y-43.35
X-138.25Y8.35
X-138.25Y-43.35
X-117.0Y8.35
X-117.0Y-43.35
X-95.75Y8.35
X-95.75Y-43.35
X-74.5Y8.35
X-74.5Y-43.35
X-53.25Y8.35
X-53.25Y-43.35
X-32.05Y8.35
X-32.05Y-43.35
X-10.8Y8.35
X-10.8Y-43.35
X10.45Y8.35
X10.45Y-43.35
X31.75Y8.35
X31.75Y-43.35
X53.0Y8.35
X53.0Y-43.35
X74.25Y8.35
X74.25Y-43.35
X95.6Y8.45
X95.6Y-43.25
X116.85Y8.35
X116.85Y-43.35
X138.1Y8.35
X138.1Y-43.35
X159.35Y8.35
X159.35Y-43.35
T11
X130.644Y41.398
X141.644Y41.398
T3
G00X136.52Y63.264
M15
G01X136.52Y63.864
M16
G05
G00X136.88Y57.314
M15
G01X136.88Y57.914
M16
G05
G00X145.14Y57.314
M15
G01X145.14Y57.914
M16
G05
G00X145.5Y63.264
M15
G01X145.5Y63.864
M16
G05
T5
G00X149.4Y56.674
M15
G01X149.4Y54.674
M16
G05
G00X155.1Y58.674
M15
G01X153.1Y58.674
M16
G05
G00X155.35Y52.474
M15
G01X152.85Y52.474
M16
G05
M30
